<svg width="59" height="43" viewBox="0 0 59 43" fill="none" xmlns="http://www.w3.org/2000/svg">
<path d="M2 29C3 24 6.12554 13.9993 8 11.5C9.5 9.5 12 8.5 14.5 8.5C14.5 6 14.8 2 20 2C25.2 2 25.5 5.5 25.5 8.5H33.5C33.5 6 34.2 2 39 2C43.8 2 44 6.5 44 8.5C46.5 8.5 48.9 8.5 50.5 10.5C52.1 12.5 54.785 21.9485 56.1183 26.2818M23 30.5C23 36.299 18.299 41 12.5 41C6.70101 41 2 36.299 2 30.5C2 24.701 6.70101 20 12.5 20C18.299 20 23 24.701 23 30.5ZM57 30.5C57 36.299 52.299 41 46.5 41C40.701 41 36 36.299 36 30.5C36 24.701 40.701 20 46.5 20C52.299 20 57 24.701 57 30.5ZM33.5 28.5C33.5 30.7567 31.7982 32.5 29.5 32.5C27.2018 32.5 25.5 30.7966 25.5 28.5C25.5 26.2034 27 24.5 29.5 24.5C31.7584 24.5 33.5 26.2433 33.5 28.5Z" stroke="#6323D7" stroke-width="4"/>
</svg>
