<svg width="20" height="22" viewBox="0 0 20 22" fill="none" xmlns="http://www.w3.org/2000/svg">
<path fill-rule="evenodd" clip-rule="evenodd" d="M5.94453 2.44095L4.66333 0.905151L0.0560303 4.74875L1.33713 6.28455L5.94453 2.44095ZM15.3365 0.905751L19.9439 4.74935L18.6627 6.28515L14.0553 2.44155L15.3365 0.905751ZM8.54003 13.6248L6.41003 11.4948L5.35003 12.5548L8.53003 15.7348L14.53 9.73475L13.47 8.67475L8.54003 13.6248ZM10 3.09475C5.03003 3.09475 1.00003 7.12475 1.00003 12.0948C1.00003 17.0648 5.03003 21.0948 10 21.0948C14.97 21.0948 19 17.0648 19 12.0948C19 7.12475 14.97 3.09475 10 3.09475ZM3.00003 12.0948C3.00003 15.9548 6.14003 19.0948 10 19.0948C13.86 19.0948 17 15.9548 17 12.0948C17 8.23475 13.86 5.09475 10 5.09475C6.14003 5.09475 3.00003 8.23475 3.00003 12.0948Z" fill="white"/>
</svg>
