<svg width="46" height="54" viewBox="0 0 46 54" fill="none" xmlns="http://www.w3.org/2000/svg">
<path d="M2 7.00006C20.3128 0.488796 26.3163 0.638551 44 7.00006V32.0001C35.86 45.2448 30.5 49 23 51.7571C14 47.5 10.2526 45.0976 2 32.0001V7.00006Z" stroke="#6323D7" stroke-width="4"/>
<path d="M17.0001 20C17.0001 21.1046 14.9854 22 12.5001 22C10.0148 22 8.00008 21.1046 8.00008 20C8.00008 18.8954 10.0148 18 12.5001 18C14.9854 18 17.0001 18.8954 17.0001 20Z" fill="#6323D7"/>
<path d="M38.0001 20C38.0001 21.1046 35.9854 22 33.5001 22C31.0148 22 29.0001 21.1046 29.0001 20C29.0001 18.8954 31.0148 18 33.5001 18C35.9854 18 38.0001 18.8954 38.0001 20Z" fill="#6323D7"/>
<path d="M39.5002 15.5C38.0001 13.5 37.0001 12.5 34.1916 12C30.5001 12 29.0002 18 26.0001 17.5C21.5001 15.5 29.0001 10 32.5001 10C35.7443 10 39.5002 12 39.5002 15.5Z" fill="#6323D7"/>
<path d="M6 15.5C7.50008 13.5 8.50007 12.5 11.3086 12C15.0001 12 16.5 18 19.5 17.5C24.0001 15.5 16.5001 10 13 10C9.75581 10 6 12 6 15.5Z" fill="#6323D7"/>
<path d="M8.4079 29.0958C13.0004 32.5 11.0004 31 15.9078 34.7089C18.1948 34.7089 17.5001 34 21.0001 30.5C21.5001 30.5 21.5001 30.5 23.0003 30.5C23.0001 32.5 23.0003 33.5 23.0003 36.5C22.0003 37.5 22.5003 37 21.0004 38.209C17.366 38.209 15.1577 38.2089 13.9078 38.2089C10.9078 33.7089 10.4078 33.2089 8.4079 29.0958Z" fill="#6323D7"/>
<path d="M37.5925 29.0958C33 32.5 35 31 30.0926 34.7089C27.8056 34.7089 28.5003 34 25.0003 30.5C24.5003 30.5 24.5005 30.5 23.0003 30.5C23.0001 32.5 23.0003 33.5 23.0003 36.5C24.0003 37.5 23.5001 37 25 38.209C28.6344 38.209 30.8427 38.2089 32.0926 38.2089C35.0926 33.7089 35.5926 33.2089 37.5925 29.0958Z" fill="#6323D7"/>
<path d="M21.0001 42H25.0001V52H21.0001V42Z" fill="#6323D7"/>
</svg>
